%FSLAX44Y44*%
%MOMM*%
G71*
G01*
G75*
G04 Layer_Color=8388736*
%ADD10R,1.5000X1.4000*%
%ADD11O,0.3500X2.0000*%
%ADD12R,1.4000X1.5000*%
%ADD13O,2.5000X0.7000*%
%ADD14C,0.2540*%
%ADD15C,0.3810*%
%ADD16C,0.5080*%
%ADD17R,1.5000X1.5000*%
%ADD18C,1.5000*%
%ADD19R,1.5000X1.5000*%
%ADD20C,3.0000*%
%ADD21R,2.0000X2.0000*%
%ADD22C,2.0000*%
%ADD23C,4.2000*%
%ADD24C,0.7000*%
%ADD25C,0.2500*%
%ADD26C,0.6000*%
%ADD27C,0.2000*%
%ADD28C,0.1000*%
%ADD29C,0.1270*%
%ADD30R,1.7032X1.6032*%
%ADD31O,0.5532X2.2032*%
%ADD32R,1.6032X1.7032*%
%ADD33O,2.7032X0.9032*%
%ADD34R,1.7032X1.7032*%
%ADD35C,1.7032*%
%ADD36R,1.7032X1.7032*%
%ADD37C,3.2032*%
%ADD38R,2.2032X2.2032*%
%ADD39C,2.2032*%
%ADD40C,4.4032*%
%ADD41C,0.9032*%
D30*
X782320Y990760D02*
D03*
Y1010760D02*
D03*
X736600Y990760D02*
D03*
Y1010760D02*
D03*
X777240Y1183800D02*
D03*
Y1203800D02*
D03*
D31*
X736710Y1086060D02*
D03*
X743210D02*
D03*
X749710D02*
D03*
X756210D02*
D03*
X762710D02*
D03*
X769210D02*
D03*
X775710D02*
D03*
X782210D02*
D03*
X736710Y1144060D02*
D03*
X743210D02*
D03*
X749710D02*
D03*
X756210D02*
D03*
X762710D02*
D03*
X769210D02*
D03*
X775710D02*
D03*
X782210D02*
D03*
D32*
X721520Y1186180D02*
D03*
X741520D02*
D03*
X630080Y1148080D02*
D03*
X650080D02*
D03*
Y1122680D02*
D03*
X630080D02*
D03*
Y1071880D02*
D03*
X650080D02*
D03*
X630080Y1097280D02*
D03*
X650080D02*
D03*
X578960Y1094740D02*
D03*
X558960D02*
D03*
D33*
X539380Y1068070D02*
D03*
Y1055370D02*
D03*
Y1042670D02*
D03*
Y1029970D02*
D03*
X588380Y1068070D02*
D03*
Y1055370D02*
D03*
Y1042670D02*
D03*
Y1029970D02*
D03*
D34*
X685800Y1041400D02*
D03*
X863600Y1031240D02*
D03*
D35*
X685800Y1066800D02*
D03*
X863600Y1056640D02*
D03*
X721360Y949960D02*
D03*
X777240D02*
D03*
X807720D02*
D03*
X589280D02*
D03*
X543560Y1137920D02*
D03*
Y1173480D02*
D03*
X670560Y949960D02*
D03*
X820420Y1016000D02*
D03*
X736600Y1031240D02*
D03*
X782320D02*
D03*
D36*
X695960Y949960D02*
D03*
X751840D02*
D03*
X833120D02*
D03*
X614680D02*
D03*
X568960Y1137920D02*
D03*
Y1173480D02*
D03*
D37*
X858520Y1099820D02*
D03*
X858521Y1150646D02*
D03*
D38*
X622300Y995680D02*
D03*
D39*
X647700D02*
D03*
D40*
X863600Y990600D02*
D03*
X533400D02*
D03*
X863600Y1219200D02*
D03*
X533400D02*
D03*
D41*
X759460Y1122680D02*
D03*
Y1107440D02*
D03*
X782320D02*
D03*
Y1122680D02*
D03*
X736600Y1107440D02*
D03*
Y1122680D02*
D03*
M02*
