M48
;Layer_Color=9474304
;FILE_FORMAT=4:4
METRIC,LZ
;TYPE=PLATED
T1F00S00C0.7000
T2F00S00C0.9000
T3F00S00C2.3000
%
T01
X007366Y0110744
Y0112268
X0075946
Y0110744
X0078232
Y0112268
T02
X0058928Y0094996
X0061468
X006223Y0099568
X006477
X0067056Y0094996
X0069596
X0072136
X0075184
X0077724
X0078232Y0103124
X007366
X006858Y010414
Y010668
X0056896Y0113792
X0054356
Y0117348
X0056896
X00858521Y01150646
X0085852Y0109982
X008636Y0105664
Y0103124
X0082042Y01016
X0083312Y0094996
X0080772
T03
X005334Y009906
X008636
Y012192
X005334
M30
