%FSLAX44Y44*%
%MOMM*%
G71*
G01*
G75*
G04 Layer_Color=255*
%ADD10R,1.5000X1.4000*%
%ADD11O,0.3500X2.0000*%
%ADD12R,1.4000X1.5000*%
%ADD13O,2.5000X0.7000*%
%ADD14C,0.2540*%
%ADD15C,0.3810*%
%ADD16C,0.5080*%
%ADD17R,1.5000X1.5000*%
%ADD18C,1.5000*%
%ADD19R,1.5000X1.5000*%
%ADD20C,3.0000*%
%ADD21R,2.0000X2.0000*%
%ADD22C,2.0000*%
%ADD23C,4.2000*%
%ADD24C,0.7000*%
D10*
X782320Y1193640D02*
D03*
Y1173640D02*
D03*
X817880Y1193640D02*
D03*
Y1173640D02*
D03*
X721360Y1193640D02*
D03*
Y1173640D02*
D03*
X751840Y1193640D02*
D03*
Y1173640D02*
D03*
D17*
X685800Y1041400D02*
D03*
X863600Y1031240D02*
D03*
D18*
X685800Y1066800D02*
D03*
X863600Y1056640D02*
D03*
X721360Y949960D02*
D03*
X777240D02*
D03*
X807720D02*
D03*
X589280D02*
D03*
X543560Y1137920D02*
D03*
Y1173480D02*
D03*
D19*
X695960Y949960D02*
D03*
X751840D02*
D03*
X833120D02*
D03*
X614680D02*
D03*
X568960Y1137920D02*
D03*
Y1173480D02*
D03*
D20*
X858520Y1099820D02*
D03*
X858521Y1150646D02*
D03*
D21*
X622300Y995680D02*
D03*
D22*
X647700D02*
D03*
M02*
