%FSLAX44Y44*%
%MOMM*%
G71*
G01*
G75*
G04 Layer_Color=2752767*
%ADD10O,2.5000X0.7000*%
%ADD11R,1.4000X1.5000*%
%ADD12R,1.5000X1.4000*%
%ADD13O,0.3500X2.0000*%
%ADD14C,0.5080*%
%ADD15C,0.2540*%
%ADD16C,0.3810*%
%ADD17R,0.8000X1.5000*%
%ADD18R,1.7500X1.7500*%
%ADD19C,1.7500*%
%ADD20R,1.5000X1.5000*%
%ADD21C,1.5000*%
%ADD22R,1.5000X1.5000*%
%ADD23C,4.2000*%
%ADD24C,0.7000*%
%ADD25C,0.2500*%
%ADD26C,0.6000*%
%ADD27C,0.0900*%
%ADD28C,0.1000*%
%ADD29C,0.2000*%
%ADD30O,2.7032X0.9032*%
%ADD31R,1.6032X1.7032*%
%ADD32R,1.7032X1.6032*%
%ADD33O,0.5532X2.2032*%
%ADD34R,1.0032X1.7032*%
%ADD35R,1.9532X1.9532*%
%ADD36C,1.9532*%
%ADD37R,1.7032X1.7032*%
%ADD38C,1.7032*%
%ADD39R,1.7032X1.7032*%
%ADD40C,4.4032*%
%ADD41C,0.9032*%
%ADD42C,0.1270*%
%ADD43C,0.1693*%
D42*
X609600Y988060D02*
Y998220D01*
X619760D01*
Y988060D01*
X609600D01*
X635000D02*
Y998220D01*
X645160D01*
Y988060D01*
X635000D01*
X744220Y1226820D02*
Y1236980D01*
X754380D01*
Y1226820D01*
X744220D01*
X718820D02*
Y1236980D01*
X728980D01*
Y1226820D01*
X718820D01*
X668020D02*
Y1236980D01*
X678180D01*
Y1226820D01*
X668020D01*
X642620D02*
Y1236980D01*
X652780D01*
Y1226820D01*
X642620D01*
X609600Y944880D02*
Y955040D01*
X619760D01*
Y944880D01*
X609600D01*
X584200D02*
Y955040D01*
X594360D01*
Y944880D01*
X584200D01*
X789940D02*
Y955040D01*
X800100D01*
Y944880D01*
X789940D01*
X815340D02*
Y955040D01*
X825500D01*
Y944880D01*
X815340D01*
X863600Y1061720D02*
Y1071880D01*
X873760D01*
Y1061720D01*
X863600D01*
Y1036320D02*
Y1046480D01*
X873760D01*
Y1036320D01*
X863600D01*
Y1163320D02*
Y1173480D01*
X873760D01*
Y1163320D01*
X863600D01*
Y1137920D02*
Y1148080D01*
X873760D01*
Y1137920D01*
X863600D01*
X759460Y944880D02*
Y955040D01*
X769620D01*
Y944880D01*
X759460D01*
X734060D02*
Y955040D01*
X744220D01*
Y944880D01*
X734060D01*
X703580D02*
Y955040D01*
X713740D01*
Y944880D01*
X703580D01*
X678180D02*
Y955040D01*
X688340D01*
Y944880D01*
X678180D01*
X713740Y1102360D02*
Y1112520D01*
X723900D01*
Y1102360D01*
X713740D01*
Y1137920D02*
Y1148080D01*
X723900D01*
Y1137920D01*
X713740D01*
X678180Y1010920D02*
Y1021080D01*
X688340D01*
Y1010920D01*
X678180D01*
X736600Y1117600D02*
X731520Y1127760D01*
X741680D01*
X736600Y1117600D01*
Y1102360D02*
X731520Y1112520D01*
X741680D01*
X736600Y1102360D01*
X782320Y1117600D02*
X777240Y1127760D01*
X787400D01*
X782320Y1117600D01*
Y1102360D02*
X777240Y1112520D01*
X787400D01*
X782320Y1102360D01*
X759460D02*
X754380Y1112520D01*
X764540D01*
X759460Y1102360D01*
Y1117600D02*
X754380Y1127760D01*
X764540D01*
X759460Y1117600D01*
X777240Y1026160D02*
Y1036320D01*
X787400D01*
Y1026160D01*
X777240D01*
X731520D02*
Y1036320D01*
X741680D01*
Y1026160D01*
X731520D01*
X815340Y1010920D02*
Y1021080D01*
X825500D01*
Y1010920D01*
X815340D01*
X835660Y1163320D02*
Y1173480D01*
X845820D01*
Y1163320D01*
X835660D01*
Y1137920D02*
Y1148080D01*
X845820D01*
Y1137920D01*
X835660D01*
D43*
X538480Y1219200D02*
G03*
X538480Y1219200I-5080J0D01*
G01*
X868680D02*
G03*
X868680Y1219200I-5080J0D01*
G01*
X538480Y990600D02*
G03*
X538480Y990600I-5080J0D01*
G01*
X868680D02*
G03*
X868680Y990600I-5080J0D01*
G01*
M02*
