%FSLAX44Y44*%
%MOMM*%
G71*
G01*
G75*
%ADD10R,1.5000X1.4000*%
%ADD11O,0.3500X2.0000*%
%ADD12R,1.4000X1.5000*%
%ADD13O,2.5000X0.7000*%
%ADD14C,0.2540*%
%ADD15C,0.3810*%
%ADD16C,0.5080*%
%ADD17R,1.5000X1.5000*%
%ADD18C,1.5000*%
%ADD19R,1.5000X1.5000*%
%ADD20C,3.0000*%
%ADD21R,2.0000X2.0000*%
%ADD22C,2.0000*%
%ADD23C,4.2000*%
%ADD24C,0.7000*%
%ADD25C,0.2500*%
%ADD26C,0.6000*%
%ADD27C,0.2000*%
%ADD28C,0.1000*%
%ADD29C,0.1270*%
D14*
X568960Y1234435D02*
Y1224278D01*
X574038Y1219200D01*
X579117Y1224278D01*
Y1234435D01*
X599430Y1219200D02*
Y1234435D01*
X607048D01*
X609587Y1231896D01*
Y1226817D01*
X607048Y1224278D01*
X599430D01*
X604509D02*
X609587Y1219200D01*
X622283D02*
X617204D01*
X614665Y1221739D01*
Y1226817D01*
X617204Y1229357D01*
X622283D01*
X624822Y1226817D01*
Y1224278D01*
X614665D01*
X634979Y1214122D02*
X637518D01*
X640057Y1216661D01*
Y1229357D01*
X632439D01*
X629900Y1226817D01*
Y1221739D01*
X632439Y1219200D01*
X640057D01*
X685800D02*
Y1234435D01*
X690878Y1229357D01*
X695957Y1234435D01*
Y1219200D01*
X703574D02*
X708653D01*
X711192Y1221739D01*
Y1226817D01*
X708653Y1229357D01*
X703574D01*
X701035Y1226817D01*
Y1221739D01*
X703574Y1219200D01*
X718809Y1231896D02*
Y1229357D01*
X716270D01*
X721348D01*
X718809D01*
Y1221739D01*
X721348Y1219200D01*
X731505D02*
X736584D01*
X739123Y1221739D01*
Y1226817D01*
X736584Y1229357D01*
X731505D01*
X728966Y1226817D01*
Y1221739D01*
X731505Y1219200D01*
X744201Y1229357D02*
Y1219200D01*
Y1224278D01*
X746740Y1226817D01*
X749279Y1229357D01*
X751819D01*
X774671Y1234435D02*
Y1219200D01*
X782289D01*
X784828Y1221739D01*
Y1231896D01*
X782289Y1234435D01*
X774671D01*
D25*
X730710Y1086060D02*
G03*
X730710Y1086060I-1250J0D01*
G01*
X589630Y1020970D02*
G03*
X589630Y1020970I-1250J0D01*
G01*
X665480Y967740D02*
Y1219200D01*
X645160Y947420D02*
X665480Y967740D01*
X645160Y937260D02*
Y947420D01*
X609600Y1016000D02*
X660400D01*
Y980440D02*
Y1016000D01*
X609600Y980440D02*
X660400D01*
X609600D02*
Y1016000D01*
D26*
X746960Y1110060D02*
G03*
X746960Y1110060I-3000J0D01*
G01*
D27*
X775820Y1000760D02*
X788820D01*
X733960Y1100060D02*
X784960D01*
X733960Y1130060D02*
X784960D01*
X733960Y1100060D02*
Y1130060D01*
X784960Y1100060D02*
Y1130060D01*
X730100Y1000760D02*
X743100D01*
X673100Y1079500D02*
X698500D01*
Y1028700D02*
Y1079500D01*
X673100Y1028700D02*
X698500D01*
X673100D02*
Y1079500D01*
X731520Y1179680D02*
Y1192680D01*
X770740Y1193800D02*
X783740D01*
X850900Y1069340D02*
X876300D01*
Y1018540D02*
Y1069340D01*
X850900Y1018540D02*
X876300D01*
X850900D02*
Y1069340D01*
X734060Y937260D02*
Y962660D01*
X683260Y937260D02*
X734060D01*
X683260D02*
Y962660D01*
X734060D01*
X789940Y937260D02*
Y962660D01*
X739140Y937260D02*
X789940D01*
X739140D02*
Y962660D01*
X789940D01*
X838970Y1078992D02*
Y1169420D01*
Y1078992D02*
X877070D01*
Y1169420D01*
X838970D02*
X877070D01*
X795020Y937260D02*
Y962660D01*
X845820D01*
Y937260D02*
Y962660D01*
X795020Y937260D02*
X845820D01*
X640080Y1141580D02*
Y1154580D01*
Y1116180D02*
Y1129180D01*
Y1065380D02*
Y1078380D01*
Y1090780D02*
Y1103780D01*
X568960Y1088240D02*
Y1101240D01*
X555880Y1074020D02*
X571880D01*
X555880Y1024020D02*
X571880D01*
X555880D02*
Y1074020D01*
X571880Y1024020D02*
Y1074020D01*
X576580Y937260D02*
X627380D01*
Y962660D01*
X576580D02*
X627380D01*
X576580Y937260D02*
Y962660D01*
X530860Y1125220D02*
X581660D01*
Y1150620D01*
X530860D02*
X581660D01*
X530860Y1125220D02*
Y1150620D01*
Y1160780D02*
X581660D01*
Y1186180D01*
X530860D02*
X581660D01*
X530860Y1160780D02*
Y1186180D01*
D28*
X645033Y1009396D02*
X649351D01*
X617601Y1009523D02*
X621919D01*
X619760Y1007364D02*
Y1011682D01*
D29*
X853438Y962657D02*
X850899D01*
X852169D01*
Y956310D01*
X850899Y955040D01*
X849630D01*
X848360Y956310D01*
X861056Y962657D02*
X855977D01*
Y958849D01*
X858517Y960118D01*
X859786D01*
X861056Y958849D01*
Y956310D01*
X859786Y955040D01*
X857247D01*
X855977Y956310D01*
X866138Y952497D02*
X863599D01*
X864869D01*
Y946150D01*
X863599Y944880D01*
X862330D01*
X861060Y946150D01*
X873756Y944880D02*
X868678D01*
X873756Y949958D01*
Y951228D01*
X872486Y952497D01*
X869947D01*
X868678Y951228D01*
X769620Y1028700D02*
Y1036318D01*
X773429D01*
X774698Y1035048D01*
Y1032509D01*
X773429Y1031239D01*
X769620D01*
X772159D02*
X774698Y1028700D01*
X781046D02*
Y1036318D01*
X777237Y1032509D01*
X782316D01*
X721360Y1109977D02*
Y1103630D01*
X722630Y1102360D01*
X725169D01*
X726438Y1103630D01*
Y1109977D01*
X728978Y1102360D02*
X731517D01*
X730247D01*
Y1109977D01*
X728978Y1108708D01*
X726440Y1026160D02*
Y1033777D01*
X730249D01*
X731518Y1032508D01*
Y1029969D01*
X730249Y1028699D01*
X726440D01*
X728979D02*
X731518Y1026160D01*
X734057D02*
X736597D01*
X735327D01*
Y1033777D01*
X734057Y1032508D01*
X683258Y1115058D02*
X680719D01*
X681989D01*
Y1108710D01*
X680719Y1107440D01*
X679450D01*
X678180Y1108710D01*
X685798Y1107440D02*
X688337D01*
X687067D01*
Y1115058D01*
X685798Y1113788D01*
X734058Y1207768D02*
X732789Y1209037D01*
X730250D01*
X728980Y1207768D01*
Y1202690D01*
X730250Y1201420D01*
X732789D01*
X734058Y1202690D01*
X741676Y1201420D02*
X736598D01*
X741676Y1206498D01*
Y1207768D01*
X740406Y1209037D01*
X737867D01*
X736598Y1207768D01*
X797558Y1189988D02*
X796289Y1191257D01*
X793750D01*
X792480Y1189988D01*
Y1184910D01*
X793750Y1183640D01*
X796289D01*
X797558Y1184910D01*
X800098Y1183640D02*
X802637D01*
X801367D01*
Y1191257D01*
X800098Y1189988D01*
X825498Y1071878D02*
X822959D01*
X824229D01*
Y1065530D01*
X822959Y1064260D01*
X821690D01*
X820420Y1065530D01*
X828037Y1070608D02*
X829307Y1071878D01*
X831846D01*
X833116Y1070608D01*
Y1069338D01*
X831846Y1068069D01*
X830577D01*
X831846D01*
X833116Y1066799D01*
Y1065530D01*
X831846Y1064260D01*
X829307D01*
X828037Y1065530D01*
X825498Y1123948D02*
X824229Y1125218D01*
X821690D01*
X820420Y1123948D01*
Y1118870D01*
X821690Y1117600D01*
X824229D01*
X825498Y1118870D01*
X828037Y1123948D02*
X829307Y1125218D01*
X831846D01*
X833116Y1123948D01*
Y1122678D01*
X831846Y1121409D01*
X830577D01*
X831846D01*
X833116Y1120139D01*
Y1118870D01*
X831846Y1117600D01*
X829307D01*
X828037Y1118870D01*
X878838Y944877D02*
X876299D01*
X877569D01*
Y938530D01*
X876299Y937260D01*
X875030D01*
X873760Y938530D01*
X885186Y937260D02*
Y944877D01*
X881377Y941069D01*
X886456D01*
X612138Y1075688D02*
X610869Y1076957D01*
X608330D01*
X607060Y1075688D01*
Y1070610D01*
X608330Y1069340D01*
X610869D01*
X612138Y1070610D01*
X618486Y1069340D02*
Y1076957D01*
X614678Y1073149D01*
X619756D01*
X652778Y1027428D02*
X651509Y1028698D01*
X648970D01*
X647700Y1027428D01*
Y1022350D01*
X648970Y1021080D01*
X651509D01*
X652778Y1022350D01*
X660396Y1028698D02*
X655318D01*
Y1024889D01*
X657857Y1026158D01*
X659126D01*
X660396Y1024889D01*
Y1022350D01*
X659126Y1021080D01*
X656587D01*
X655318Y1022350D01*
X543560Y1109980D02*
Y1117598D01*
X547369D01*
X548638Y1116328D01*
Y1113789D01*
X547369Y1112519D01*
X543560D01*
X546099D02*
X548638Y1109980D01*
X551177Y1117598D02*
X556256D01*
Y1116328D01*
X551177Y1111250D01*
Y1109980D01*
X607060Y1094740D02*
Y1102357D01*
X610869D01*
X612138Y1101088D01*
Y1098549D01*
X610869Y1097279D01*
X607060D01*
X609599D02*
X612138Y1094740D01*
X614678Y1101088D02*
X615947Y1102357D01*
X618486D01*
X619756Y1101088D01*
Y1099818D01*
X618486Y1098549D01*
X619756Y1097279D01*
Y1096010D01*
X618486Y1094740D01*
X615947D01*
X614678Y1096010D01*
Y1097279D01*
X615947Y1098549D01*
X614678Y1099818D01*
Y1101088D01*
X615947Y1098549D02*
X618486D01*
X607060Y1120140D02*
Y1127757D01*
X610869D01*
X612138Y1126488D01*
Y1123949D01*
X610869Y1122679D01*
X607060D01*
X609599D02*
X612138Y1120140D01*
X614678Y1121410D02*
X615947Y1120140D01*
X618486D01*
X619756Y1121410D01*
Y1126488D01*
X618486Y1127757D01*
X615947D01*
X614678Y1126488D01*
Y1125218D01*
X615947Y1123949D01*
X619756D01*
X601980Y1145540D02*
Y1153158D01*
X605789D01*
X607058Y1151888D01*
Y1149349D01*
X605789Y1148079D01*
X601980D01*
X604519D02*
X607058Y1145540D01*
X609598D02*
X612137D01*
X610867D01*
Y1153158D01*
X609598Y1151888D01*
X615946D02*
X617215Y1153158D01*
X619754D01*
X621024Y1151888D01*
Y1146810D01*
X619754Y1145540D01*
X617215D01*
X615946Y1146810D01*
Y1151888D01*
X609600Y1041397D02*
Y1035050D01*
X610870Y1033780D01*
X613409D01*
X614678Y1035050D01*
Y1041397D01*
X622296Y1033780D02*
X617217D01*
X622296Y1038858D01*
Y1040128D01*
X621026Y1041397D01*
X618487D01*
X617217Y1040128D01*
X640078Y965198D02*
X637539D01*
X638809D01*
Y958850D01*
X637539Y957580D01*
X636270D01*
X635000Y958850D01*
X647696Y965198D02*
X645157Y963928D01*
X642617Y961389D01*
Y958850D01*
X643887Y957580D01*
X646426D01*
X647696Y958850D01*
Y960119D01*
X646426Y961389D01*
X642617D01*
X591818Y1145537D02*
X589279D01*
X590549D01*
Y1139190D01*
X589279Y1137920D01*
X588010D01*
X586740Y1139190D01*
X594357Y1145537D02*
X599436D01*
Y1144268D01*
X594357Y1139190D01*
Y1137920D01*
X591818Y1183637D02*
X589279D01*
X590549D01*
Y1177290D01*
X589279Y1176020D01*
X588010D01*
X586740Y1177290D01*
X594357Y1182368D02*
X595627Y1183637D01*
X598166D01*
X599436Y1182368D01*
Y1181098D01*
X598166Y1179829D01*
X599436Y1178559D01*
Y1177290D01*
X598166Y1176020D01*
X595627D01*
X594357Y1177290D01*
Y1178559D01*
X595627Y1179829D01*
X594357Y1181098D01*
Y1182368D01*
X595627Y1179829D02*
X598166D01*
X800100Y975358D02*
Y967740D01*
X803909D01*
X805178Y969010D01*
Y970279D01*
X803909Y971549D01*
X800100D01*
X803909D01*
X805178Y972818D01*
Y974088D01*
X803909Y975358D01*
X800100D01*
X812796Y967740D02*
X807718D01*
X812796Y972818D01*
Y974088D01*
X811526Y975358D01*
X808987D01*
X807718Y974088D01*
X825500Y975358D02*
Y967740D01*
X829309D01*
X830578Y969010D01*
Y970279D01*
X829309Y971549D01*
X825500D01*
X829309D01*
X830578Y972818D01*
Y974088D01*
X829309Y975358D01*
X825500D01*
X833118Y967740D02*
X835657D01*
X834387D01*
Y975358D01*
X833118Y974088D01*
X769620Y967740D02*
Y972818D01*
X772159Y975358D01*
X774698Y972818D01*
Y967740D01*
Y971549D01*
X769620D01*
X782316Y967740D02*
X777237D01*
X782316Y972818D01*
Y974088D01*
X781046Y975358D01*
X778507D01*
X777237Y974088D01*
X741680Y967740D02*
Y972818D01*
X744219Y975358D01*
X746758Y972818D01*
Y967740D01*
Y971549D01*
X741680D01*
X749297Y967740D02*
X751837D01*
X750567D01*
Y975358D01*
X749297Y974088D01*
X711198D02*
X709929Y975358D01*
X707390D01*
X706120Y974088D01*
Y969010D01*
X707390Y967740D01*
X709929D01*
X711198Y969010D01*
X713737Y975358D02*
X718816D01*
X716277D01*
Y967740D01*
X721355D02*
Y975358D01*
X725164D01*
X726433Y974088D01*
Y971549D01*
X725164Y970279D01*
X721355D01*
X723894D02*
X726433Y967740D01*
X728973Y975358D02*
Y967740D01*
X734051D01*
X683258Y975358D02*
X678180D01*
Y971549D01*
X680719D01*
X678180D01*
Y967740D01*
Y1094740D02*
Y1099818D01*
X680719Y1102357D01*
X683258Y1099818D01*
Y1094740D01*
Y1098549D01*
X678180D01*
X685798Y1094740D02*
X688337D01*
X687067D01*
Y1099818D01*
X685798D01*
X692145Y1094740D02*
Y1099818D01*
X695954D01*
X697224Y1098549D01*
Y1094740D01*
X704841D02*
X699763D01*
X704841Y1099818D01*
Y1101088D01*
X703572Y1102357D01*
X701033D01*
X699763Y1101088D01*
X678180Y1084580D02*
Y1089658D01*
X680719Y1092197D01*
X683258Y1089658D01*
Y1084580D01*
Y1088389D01*
X678180D01*
X685798Y1084580D02*
X688337D01*
X687067D01*
Y1089658D01*
X685798D01*
X692145Y1084580D02*
Y1089658D01*
X695954D01*
X697224Y1088389D01*
Y1084580D01*
X699763D02*
X702302D01*
X701033D01*
Y1092197D01*
X699763Y1090928D01*
X820420Y1051557D02*
Y1043940D01*
X824229D01*
X825498Y1045210D01*
Y1046479D01*
X824229Y1047749D01*
X820420D01*
X824229D01*
X825498Y1049018D01*
Y1050288D01*
X824229Y1051557D01*
X820420D01*
X828037Y1043940D02*
X830577D01*
X829307D01*
Y1049018D01*
X828037D01*
X834386Y1043940D02*
Y1049018D01*
X838194D01*
X839464Y1047749D01*
Y1043940D01*
X842003D02*
X844542D01*
X843273D01*
Y1051557D01*
X842003Y1050288D01*
X820420Y1061718D02*
Y1054100D01*
X824229D01*
X825498Y1055370D01*
Y1056639D01*
X824229Y1057909D01*
X820420D01*
X824229D01*
X825498Y1059178D01*
Y1060448D01*
X824229Y1061718D01*
X820420D01*
X828037Y1054100D02*
X830577D01*
X829307D01*
Y1059178D01*
X828037D01*
X834386Y1054100D02*
Y1059178D01*
X838194D01*
X839464Y1057909D01*
Y1054100D01*
X847081D02*
X842003D01*
X847081Y1059178D01*
Y1060448D01*
X845812Y1061718D01*
X843273D01*
X842003Y1060448D01*
M02*
