%FSLAX44Y44*%
%MOMM*%
G71*
G01*
G75*
G04 Layer_Color=16711935*
%ADD10R,1.5000X1.4000*%
%ADD11O,0.3500X2.0000*%
%ADD12R,1.4000X1.5000*%
%ADD13O,2.5000X0.7000*%
%ADD14C,0.2540*%
%ADD15C,0.3810*%
%ADD16C,0.5080*%
%ADD17R,1.5000X1.5000*%
%ADD18C,1.5000*%
%ADD19R,1.5000X1.5000*%
%ADD20C,3.0000*%
%ADD21R,2.0000X2.0000*%
%ADD22C,2.0000*%
%ADD23C,4.2000*%
%ADD24C,0.7000*%
%ADD25C,0.2500*%
%ADD26C,0.6000*%
%ADD27C,0.2000*%
%ADD28C,0.1000*%
%ADD29C,0.1270*%
%ADD30R,1.7032X1.6032*%
%ADD31O,0.5532X2.2032*%
%ADD32R,1.6032X1.7032*%
%ADD33O,2.7032X0.9032*%
%ADD34R,1.7032X1.7032*%
%ADD35C,1.7032*%
%ADD36R,1.7032X1.7032*%
%ADD37C,3.2032*%
%ADD38R,2.2032X2.2032*%
%ADD39C,2.2032*%
%ADD40C,4.4032*%
%ADD41C,0.9032*%
D28*
X747960Y1101560D02*
G03*
X747960Y1101560I-5000J0D01*
G01*
X579880Y1033020D02*
G03*
X579880Y1033020I-5000J0D01*
G01*
X775320Y990010D02*
X789320D01*
X775320Y1011510D02*
X789320D01*
X775320Y990010D02*
Y1011510D01*
X789320Y990010D02*
Y1011510D01*
X733960Y1092560D02*
X784960D01*
X733960Y1137560D02*
X784960D01*
X733960Y1092560D02*
Y1137560D01*
X784960Y1092560D02*
Y1137560D01*
X729600Y990010D02*
X743600D01*
X729600Y1011510D02*
X743600D01*
X729600Y990010D02*
Y1011510D01*
X743600Y990010D02*
Y1011510D01*
X720770Y1179180D02*
Y1193180D01*
X742270Y1179180D02*
Y1193180D01*
X720770D02*
X742270D01*
X720770Y1179180D02*
X742270D01*
X770240Y1183050D02*
X784240D01*
X770240Y1204550D02*
X784240D01*
X770240Y1183050D02*
Y1204550D01*
X784240Y1183050D02*
Y1204550D01*
X629330Y1155080D02*
X650830D01*
X629330Y1141080D02*
X650830D01*
X629330D02*
Y1155080D01*
X650830Y1141080D02*
Y1155080D01*
X629330Y1115680D02*
X650830D01*
X629330Y1129680D02*
X650830D01*
Y1115680D02*
Y1129680D01*
X629330Y1115680D02*
Y1129680D01*
X629330Y1078880D02*
X650830D01*
X629330Y1064880D02*
X650830D01*
X629330D02*
Y1078880D01*
X650830Y1064880D02*
Y1078880D01*
X629330Y1104280D02*
X650830D01*
X629330Y1090280D02*
X650830D01*
X629330D02*
Y1104280D01*
X650830Y1090280D02*
Y1104280D01*
X558210Y1087740D02*
X579710D01*
X558210Y1101740D02*
X579710D01*
Y1087740D02*
Y1101740D01*
X558210Y1087740D02*
Y1101740D01*
X543880Y1074020D02*
X583880D01*
X543880Y1024020D02*
X583880D01*
X543880D02*
Y1074020D01*
X583880Y1024020D02*
Y1074020D01*
X775320Y1194390D02*
X789320D01*
X775320Y1172890D02*
X789320D01*
X775320D02*
Y1194390D01*
X789320Y1172890D02*
Y1194390D01*
X810880D02*
X824880D01*
X810880Y1172890D02*
X824880D01*
X810880D02*
Y1194390D01*
X824880Y1172890D02*
Y1194390D01*
X714360D02*
X728360D01*
X714360Y1172890D02*
X728360D01*
X714360D02*
Y1194390D01*
X728360Y1172890D02*
Y1194390D01*
X744840D02*
X758840D01*
X744840Y1172890D02*
X758840D01*
X744840D02*
Y1194390D01*
X758840Y1172890D02*
Y1194390D01*
M02*
