%FSLAX44Y44*%
%MOMM*%
G71*
G01*
G75*
G04 Layer_Color=2752767*
%ADD10R,1.5000X1.4000*%
%ADD11O,0.3500X2.0000*%
%ADD12R,1.4000X1.5000*%
%ADD13O,2.5000X0.7000*%
%ADD14C,0.2540*%
%ADD15C,0.3810*%
%ADD16C,0.5080*%
%ADD17R,1.5000X1.5000*%
%ADD18C,1.5000*%
%ADD19R,1.5000X1.5000*%
%ADD20C,3.0000*%
%ADD21R,2.0000X2.0000*%
%ADD22C,2.0000*%
%ADD23C,4.2000*%
%ADD24C,0.7000*%
%ADD25C,0.2500*%
%ADD26C,0.6000*%
%ADD27C,0.2000*%
%ADD28C,0.1000*%
%ADD29C,0.1270*%
%ADD30R,1.7032X1.6032*%
%ADD31O,0.5532X2.2032*%
%ADD32R,1.6032X1.7032*%
%ADD33O,2.7032X0.9032*%
%ADD34R,1.7032X1.7032*%
%ADD35C,1.7032*%
%ADD36R,1.7032X1.7032*%
%ADD37C,3.2032*%
%ADD38R,2.2032X2.2032*%
%ADD39C,2.2032*%
%ADD40C,4.4032*%
%ADD41C,0.9032*%
%ADD42C,0.0500*%
%ADD43C,0.1693*%
D29*
X680720Y1036320D02*
Y1046480D01*
X690880D01*
Y1036320D01*
X680720D01*
Y1061720D02*
Y1071880D01*
X690880D01*
Y1061720D01*
X680720D01*
X858520Y1026160D02*
Y1036320D01*
X868680D01*
Y1026160D01*
X858520D01*
Y1051560D02*
Y1061720D01*
X868680D01*
Y1051560D01*
X858520D01*
X690880Y944880D02*
Y955040D01*
X701040D01*
Y944880D01*
X690880D01*
X716280D02*
Y955040D01*
X726440D01*
Y944880D01*
X716280D01*
X746760D02*
Y955040D01*
X756920D01*
Y944880D01*
X746760D01*
X772160D02*
Y955040D01*
X782320D01*
Y944880D01*
X772160D01*
X853440Y1094740D02*
Y1104900D01*
X863600D01*
Y1094740D01*
X853440D01*
X853441Y1145566D02*
Y1155726D01*
X863601D01*
Y1145566D01*
X853441D01*
X828040Y944880D02*
Y955040D01*
X838200D01*
Y944880D01*
X828040D01*
X802640D02*
Y955040D01*
X812800D01*
Y944880D01*
X802640D01*
X617220Y990600D02*
Y1000760D01*
X627380D01*
Y990600D01*
X617220D01*
X642620D02*
Y1000760D01*
X652780D01*
Y990600D01*
X642620D01*
X584200Y944880D02*
Y955040D01*
X594360D01*
Y944880D01*
X584200D01*
X609600D02*
Y955040D01*
X619760D01*
Y944880D01*
X609600D01*
X538480Y1132840D02*
Y1143000D01*
X548640D01*
Y1132840D01*
X538480D01*
X563880D02*
Y1143000D01*
X574040D01*
Y1132840D01*
X563880D01*
X538480Y1168400D02*
Y1178560D01*
X548640D01*
Y1168400D01*
X538480D01*
X563880D02*
Y1178560D01*
X574040D01*
Y1168400D01*
X563880D01*
X665480Y944880D02*
Y955040D01*
X675640D01*
Y944880D01*
X665480D01*
X815340Y1010920D02*
Y1021080D01*
X825500D01*
Y1010920D01*
X815340D01*
X731520Y1026160D02*
Y1036320D01*
X741680D01*
Y1026160D01*
X731520D01*
X777240D02*
Y1036320D01*
X787400D01*
Y1026160D01*
X777240D01*
X759460Y1117600D02*
X754380Y1127760D01*
X764540D01*
X759460Y1117600D01*
Y1102360D02*
X754380Y1112520D01*
X764540D01*
X759460Y1102360D01*
X782320D02*
X777240Y1112520D01*
X787400D01*
X782320Y1102360D01*
Y1117600D02*
X777240Y1127760D01*
X787400D01*
X782320Y1117600D01*
X736600Y1102360D02*
X731520Y1112520D01*
X741680D01*
X736600Y1102360D01*
Y1117600D02*
X731520Y1127760D01*
X741680D01*
X736600Y1117600D01*
D43*
X868680Y990600D02*
G03*
X868680Y990600I-5080J0D01*
G01*
X538480D02*
G03*
X538480Y990600I-5080J0D01*
G01*
X868680Y1219200D02*
G03*
X868680Y1219200I-5080J0D01*
G01*
X538480D02*
G03*
X538480Y1219200I-5080J0D01*
G01*
M02*
