%FSLAX44Y44*%
%MOMM*%
G71*
G01*
G75*
%ADD10R,1.5000X1.4000*%
%ADD11O,0.3500X2.0000*%
%ADD12R,1.4000X1.5000*%
%ADD13O,2.5000X0.7000*%
%ADD14C,0.2540*%
%ADD15C,0.3810*%
%ADD16C,0.5080*%
%ADD17R,1.5000X1.5000*%
%ADD18C,1.5000*%
%ADD19R,1.5000X1.5000*%
%ADD20C,3.0000*%
%ADD21R,2.0000X2.0000*%
%ADD22C,2.0000*%
%ADD23C,4.2000*%
%ADD24C,0.7000*%
%ADD25C,0.2500*%
%ADD26C,0.6000*%
%ADD27C,0.2000*%
%ADD28C,0.1000*%
%ADD29C,0.1270*%
%ADD30R,1.7032X1.6032*%
%ADD31O,0.5532X2.2032*%
%ADD32R,1.6032X1.7032*%
%ADD33O,2.7032X0.9032*%
%ADD34R,1.7032X1.7032*%
%ADD35C,1.7032*%
%ADD36R,1.7032X1.7032*%
%ADD37C,3.2032*%
%ADD38R,2.2032X2.2032*%
%ADD39C,2.2032*%
%ADD40C,4.4032*%
%ADD41C,0.9032*%
%ADD42C,0.0500*%
%ADD43C,0.1693*%
D29*
X681300Y1041400D02*
X690300D01*
X685800Y1036900D02*
Y1045900D01*
X681300Y1066800D02*
X690300D01*
X685800Y1062300D02*
Y1071300D01*
X859100Y1031240D02*
X868100D01*
X863600Y1026740D02*
Y1035740D01*
X859100Y1056640D02*
X868100D01*
X863600Y1052140D02*
Y1061140D01*
X691460Y949960D02*
X700460D01*
X695960Y945460D02*
Y954460D01*
X716860Y949960D02*
X725860D01*
X721360Y945460D02*
Y954460D01*
X747340Y949960D02*
X756340D01*
X751840Y945460D02*
Y954460D01*
X772740Y949960D02*
X781740D01*
X777240Y945460D02*
Y954460D01*
X854020Y1099820D02*
X863020D01*
X858520Y1095320D02*
Y1104320D01*
X854021Y1150646D02*
X863021D01*
X858521Y1146146D02*
Y1155146D01*
X828620Y949960D02*
X837620D01*
X833120Y945460D02*
Y954460D01*
X803220Y949960D02*
X812220D01*
X807720Y945460D02*
Y954460D01*
X617800Y995680D02*
X626800D01*
X622300Y991180D02*
Y1000180D01*
X643200Y995680D02*
X652200D01*
X647700Y991180D02*
Y1000180D01*
X584780Y949960D02*
X593780D01*
X589280Y945460D02*
Y954460D01*
X610180Y949960D02*
X619180D01*
X614680Y945460D02*
Y954460D01*
X539060Y1137920D02*
X548060D01*
X543560Y1133420D02*
Y1142420D01*
X564460Y1137920D02*
X573460D01*
X568960Y1133420D02*
Y1142420D01*
X539060Y1173480D02*
X548060D01*
X543560Y1168980D02*
Y1177980D01*
X564460Y1173480D02*
X573460D01*
X568960Y1168980D02*
Y1177980D01*
X852100Y990600D02*
X875100D01*
X863600Y979100D02*
Y1002100D01*
X666060Y949960D02*
X675060D01*
X670560Y945460D02*
Y954460D01*
X815920Y1016000D02*
X824920D01*
X820420Y1011500D02*
Y1020500D01*
X732100Y1031240D02*
X741100D01*
X736600Y1026740D02*
Y1035740D01*
X777820Y1031240D02*
X786820D01*
X782320Y1026740D02*
Y1035740D01*
X755960Y1122680D02*
X762960D01*
X759460Y1119180D02*
Y1126180D01*
X755960Y1107440D02*
X762960D01*
X759460Y1103940D02*
Y1110940D01*
X778820Y1107440D02*
X785820D01*
X782320Y1103940D02*
Y1110940D01*
X778820Y1122680D02*
X785820D01*
X782320Y1119180D02*
Y1126180D01*
X733100Y1107440D02*
X740100D01*
X736600Y1103940D02*
Y1110940D01*
X733100Y1122680D02*
X740100D01*
X736600Y1119180D02*
Y1126180D01*
X521900Y990600D02*
X544900D01*
X533400Y979100D02*
Y1002100D01*
X852100Y1219200D02*
X875100D01*
X863600Y1207700D02*
Y1230700D01*
X521900Y1219200D02*
X544900D01*
X533400Y1207700D02*
Y1230700D01*
M02*
