%FSLAX44Y44*%
%MOMM*%
G71*
G01*
G75*
G04 Layer_Color=8421504*
%ADD10R,1.5000X1.4000*%
%ADD11O,0.3500X2.0000*%
%ADD12R,1.4000X1.5000*%
%ADD13O,2.5000X0.7000*%
%ADD14C,0.2540*%
%ADD15C,0.3810*%
%ADD16C,0.5080*%
%ADD17R,1.5000X1.5000*%
%ADD18C,1.5000*%
%ADD19R,1.5000X1.5000*%
%ADD20C,3.0000*%
%ADD21R,2.0000X2.0000*%
%ADD22C,2.0000*%
%ADD23C,4.2000*%
%ADD24C,0.7000*%
%ADD25C,0.2500*%
%ADD26C,0.6000*%
%ADD27C,0.2000*%
%ADD28C,0.1000*%
%ADD29C,0.1270*%
D10*
X782320Y990760D02*
D03*
Y1010760D02*
D03*
X736600Y990760D02*
D03*
Y1010760D02*
D03*
X777240Y1183800D02*
D03*
Y1203800D02*
D03*
D11*
X736710Y1086060D02*
D03*
X743210D02*
D03*
X749710D02*
D03*
X756210D02*
D03*
X762710D02*
D03*
X769210D02*
D03*
X775710D02*
D03*
X782210D02*
D03*
X736710Y1144060D02*
D03*
X743210D02*
D03*
X749710D02*
D03*
X756210D02*
D03*
X762710D02*
D03*
X769210D02*
D03*
X775710D02*
D03*
X782210D02*
D03*
D12*
X721520Y1186180D02*
D03*
X741520D02*
D03*
X630080Y1148080D02*
D03*
X650080D02*
D03*
Y1122680D02*
D03*
X630080D02*
D03*
Y1071880D02*
D03*
X650080D02*
D03*
X630080Y1097280D02*
D03*
X650080D02*
D03*
X578960Y1094740D02*
D03*
X558960D02*
D03*
D13*
X539380Y1068070D02*
D03*
Y1055370D02*
D03*
Y1042670D02*
D03*
Y1029970D02*
D03*
X588380Y1068070D02*
D03*
Y1055370D02*
D03*
Y1042670D02*
D03*
Y1029970D02*
D03*
M02*
