%FSLAX44Y44*%
%MOMM*%
G71*
G01*
G75*
G04 Layer_Color=8388736*
%ADD10O,2.5000X0.7000*%
%ADD11R,1.4000X1.5000*%
%ADD12R,1.5000X1.4000*%
%ADD13O,0.3500X2.0000*%
%ADD14C,0.5080*%
%ADD15C,0.2540*%
%ADD16C,0.3810*%
%ADD17R,0.8000X1.5000*%
%ADD18R,1.7500X1.7500*%
%ADD19C,1.7500*%
%ADD20R,1.5000X1.5000*%
%ADD21C,1.5000*%
%ADD22R,1.5000X1.5000*%
%ADD23C,4.2000*%
%ADD24C,0.7000*%
%ADD25C,0.2500*%
%ADD26C,0.6000*%
%ADD27C,0.0900*%
%ADD28C,0.1000*%
%ADD29C,0.2000*%
%ADD30O,2.7032X0.9032*%
%ADD31R,1.6032X1.7032*%
%ADD32R,1.7032X1.6032*%
%ADD33O,0.5532X2.2032*%
%ADD34R,1.0032X1.7032*%
%ADD35R,1.9532X1.9532*%
%ADD36C,1.9532*%
%ADD37R,1.7032X1.7032*%
%ADD38C,1.7032*%
%ADD39R,1.7032X1.7032*%
%ADD40C,4.4032*%
%ADD41C,0.9032*%
D30*
X588380Y1029970D02*
D03*
Y1042670D02*
D03*
Y1055370D02*
D03*
Y1068070D02*
D03*
X539380Y1029970D02*
D03*
Y1042670D02*
D03*
Y1055370D02*
D03*
Y1068070D02*
D03*
D31*
X650080Y1148080D02*
D03*
X630080D02*
D03*
Y1122680D02*
D03*
X650080D02*
D03*
Y1097280D02*
D03*
X630080D02*
D03*
X558960Y1094740D02*
D03*
X578960D02*
D03*
X650080Y1071880D02*
D03*
X630080D02*
D03*
X741520Y1186180D02*
D03*
X721520D02*
D03*
D32*
X777240Y1203800D02*
D03*
Y1183800D02*
D03*
X736600Y1010760D02*
D03*
Y990760D02*
D03*
X782320Y1010760D02*
D03*
Y990760D02*
D03*
D33*
X782210Y1144060D02*
D03*
X775710D02*
D03*
X769210D02*
D03*
X762710D02*
D03*
X756210D02*
D03*
X749710D02*
D03*
X743210D02*
D03*
X736710D02*
D03*
X782210Y1086060D02*
D03*
X775710D02*
D03*
X769210D02*
D03*
X762710D02*
D03*
X756210D02*
D03*
X749710D02*
D03*
X743210D02*
D03*
X736710D02*
D03*
D34*
X687324Y1198372D02*
D03*
Y1172972D02*
D03*
D35*
X614680Y993140D02*
D03*
D36*
X640080D02*
D03*
D37*
X749300Y1231900D02*
D03*
X673100D02*
D03*
X614680Y949960D02*
D03*
X820420D02*
D03*
X739140D02*
D03*
X683260D02*
D03*
D38*
X723900Y1231900D02*
D03*
X647700D02*
D03*
X589280Y949960D02*
D03*
X795020D02*
D03*
X868680Y1066800D02*
D03*
Y1168400D02*
D03*
X764540Y949960D02*
D03*
X708660D02*
D03*
X718820Y1107440D02*
D03*
Y1143000D02*
D03*
X683260Y1016000D02*
D03*
X782320Y1031240D02*
D03*
X736600D02*
D03*
X820420Y1016000D02*
D03*
X840740Y1168400D02*
D03*
Y1143000D02*
D03*
D39*
X868680Y1041400D02*
D03*
Y1143000D02*
D03*
D40*
X533400Y1219200D02*
D03*
X863600D02*
D03*
X533400Y990600D02*
D03*
X863600D02*
D03*
D41*
X736600Y1122680D02*
D03*
Y1107440D02*
D03*
X782320Y1122680D02*
D03*
Y1107440D02*
D03*
X759460D02*
D03*
Y1122680D02*
D03*
M02*
