M48
;Layer_Color=9474304
;FILE_FORMAT=4:4
METRIC,LZ
;TYPE=PLATED
T1F00S00C0.7000
T2F00S00C0.9000
T3F00S00C2.3000
%
T01
X007366Y0110744
Y0112268
X0075946
Y0110744
X0078232
Y0112268
T02
X0058928Y0094996
X0061468
Y0099314
X0064008
X0068326Y01016
Y0094996
X0070866
X0073914
X0076454
X0078232Y0103124
X007366
X0071882Y0110744
Y01143
X0084074
Y011684
X0086868
Y01143
Y010668
Y010414
X0082042Y01016
Y0094996
X0079502
X007493Y012319
X007239
X006731
X006477
T03
X005334Y009906
X008636
Y012192
X005334
M30
